<?xml version="1.0" encoding="UTF-8" standalone="no"?>
<!-- Created with Inkscape (http://www.inkscape.org/) -->

<svg
   xmlns:osb="http://www.openswatchbook.org/uri/2009/osb"
   xmlns:dc="http://purl.org/dc/elements/1.1/"
   xmlns:cc="http://creativecommons.org/ns#"
   xmlns:rdf="http://www.w3.org/1999/02/22-rdf-syntax-ns#"
   xmlns:svg="http://www.w3.org/2000/svg"
   xmlns="http://www.w3.org/2000/svg"
   xmlns:sodipodi="http://sodipodi.sourceforge.net/DTD/sodipodi-0.dtd"
   xmlns:inkscape="http://www.inkscape.org/namespaces/inkscape"
   width="309.76654"
   height="119.43683"
   id="svg2"
   version="1.1"
   inkscape:version="0.48.4 r9939"
   sodipodi:docname="teamode_2.svg"
   inkscape:export-filename="/home/neo/Pictures/teamode.png"
   inkscape:export-xdpi="90"
   inkscape:export-ydpi="90">
  <defs
     id="defs4">
    <linearGradient
       id="linearGradient4647"
       osb:paint="solid">
      <stop
         style="stop-color:#ffffff;stop-opacity:1;"
         offset="0"
         id="stop4649" />
    </linearGradient>
  </defs>
  <sodipodi:namedview
     id="base"
     pagecolor="#ffffff"
     bordercolor="#666666"
     borderopacity="1.0"
     inkscape:pageopacity="0.0"
     inkscape:pageshadow="2"
     inkscape:zoom="2.8"
     inkscape:cx="98.513418"
     inkscape:cy="37.690331"
     inkscape:document-units="px"
     inkscape:current-layer="g4992"
     showgrid="false"
     inkscape:window-width="1855"
     inkscape:window-height="1056"
     inkscape:window-x="65"
     inkscape:window-y="24"
     inkscape:window-maximized="1"
     fit-margin-top="1"
     fit-margin-left="1"
     fit-margin-right="1"
     fit-margin-bottom="1" />
  <metadata
     id="metadata7">
    <rdf:RDF>
      <cc:Work
         rdf:about="">
        <dc:format>image/svg+xml</dc:format>
        <dc:type
           rdf:resource="http://purl.org/dc/dcmitype/StillImage" />
        <dc:title></dc:title>
      </cc:Work>
    </rdf:RDF>
  </metadata>
  <g
     inkscape:label="Layer 1"
     inkscape:groupmode="layer"
     id="layer1"
     style="display:inline"
     transform="translate(-87.37362,-84.520564)">
    <g
       id="g4584" />
    <g
       id="g4992"
       transform="translate(-308.22013,-291.59212)">
      <g
         transform="translate(12,2.15801)"
         id="g4561">
        <path
           sodipodi:nodetypes="cccccccccccccccc"
           inkscape:connector-curvature="0"
           style="fill:#ffffff;fill-rule:evenodd;stroke:#ffffff;stroke-width:0.28300318px;stroke-linecap:butt;stroke-linejoin:miter;stroke-opacity:1"
           d="m 656.4375,409.59375 -35.78125,20.6875 0,41.3125 35.78125,20.65625 18.71875,-10.8125 -18.625,-10.75 -0.0937,0.0625 -17.15625,-9.90625 0,-19.84375 17.15625,-9.90625 17.1875,9.90625 0,9.84375 18.59375,-10.75 0,-9.8125 -35.78125,-20.6875 z"
           id="path2989-1-5-2-1-2" />
        <path
           sodipodi:type="star"
           style="fill:#80bd01;fill-opacity:1;fill-rule:evenodd;stroke:#000000;stroke-width:1px;stroke-linecap:butt;stroke-linejoin:miter;stroke-opacity:1"
           id="path2989-1-5-2-1-9-7"
           sodipodi:sides="6"
           sodipodi:cx="242.85715"
           sodipodi:cy="289.50504"
           sodipodi:r1="146.02208"
           sodipodi:r2="126.45883"
           sodipodi:arg1="1.0471976"
           sodipodi:arg2="1.5707963"
           inkscape:flatsided="true"
           inkscape:rounded="0"
           inkscape:randomized="0"
           d="M 315.86818,415.96387 169.8461,415.96386 96.835068,289.50503 169.84611,163.0462 l 146.02208,1e-5 73.01104,126.45883 z"
           transform="matrix(0,0.07919339,-0.07919339,0,679.35542,431.70092)" />
      </g>
      <path
         transform="matrix(0,0.28300318,-0.28300318,0,593.32459,384.34713)"
         d="M 315.86818,415.96387 169.8461,415.96386 96.835068,289.50503 169.84611,163.0462 l 146.02208,1e-5 73.01104,126.45883 z"
         inkscape:randomized="0"
         inkscape:rounded="0"
         inkscape:flatsided="true"
         sodipodi:arg2="1.5707963"
         sodipodi:arg1="1.0471976"
         sodipodi:r2="126.45883"
         sodipodi:r1="146.02208"
         sodipodi:cy="289.50504"
         sodipodi:cx="242.85715"
         sodipodi:sides="6"
         id="path2989-1-5-2"
         style="fill:#80bd01;fill-opacity:1;fill-rule:evenodd;stroke:none"
         sodipodi:type="star" />
      <path
         id="path2989-1-5-2-1"
         d="m 589.90625,411.75176 -35.78125,20.6875 0,41.3125 35.78125,20.65625 35.78125,-20.65625 0,-41.3125 -35.78125,-20.6875 z m 0,21.5 17.1875,9.90625 0,19.84375 -17.1875,9.90625 -17.15625,-9.90625 0,-19.84375 17.15625,-9.90625 z"
         style="fill:#ffffff;fill-rule:evenodd;stroke:#ffffff;stroke-width:0.28300318px;stroke-linecap:butt;stroke-linejoin:miter;stroke-opacity:1"
         inkscape:connector-curvature="0" />
      <path
         inkscape:connector-curvature="0"
         id="rect4633"
         d="m 607.5,377.59375 0,83.09375 17.71875,0 0,-72.84375 -17.71875,-10.25 z"
         style="fill:#ffffff;fill-opacity:1;stroke:#ffffff;stroke-width:0.96213228;stroke-opacity:1" />
      <path
         id="path2989-1-5-2-6-8"
         d="m 511.39374,424.63861 -24.73327,14.27833 0,15.74721 18.83617,-10.86536 0,34.30257 5.8971,3.41298 6.60994,-3.8234 0,-33.48172 18.12333,10.45493 0,-15.74721 -24.73327,-14.27833 z"
         style="fill:#00a8aa;fill-opacity:1;fill-rule:evenodd;stroke:#ffffff;stroke-width:0.6912356;stroke-linecap:butt;stroke-linejoin:miter;stroke-opacity:1;display:inline"
         inkscape:connector-curvature="0" />
      <path
         id="path2989-1-5-2-6-8-4"
         d="m 436.14197,417.63154 -6.21875,4.5 0,1.03125 -6.09375,4.40625 0,54.6875 8.53125,4.9375 9.5625,-5.53125 0,-59.8125 -5.78125,-4.21875 z"
         style="fill:#00a8aa;fill-opacity:1;fill-rule:evenodd;stroke:#ffffff;stroke-width:1;stroke-linecap:butt;stroke-linejoin:miter;stroke-opacity:1;display:inline"
         inkscape:connector-curvature="0" />
      <path
         style="fill:#ffffff;fill-rule:evenodd;stroke:#ffffff;stroke-width:1;stroke-linecap:butt;stroke-linejoin:miter;stroke-opacity:1;display:inline"
         d="m 85.4375,79.78125 -35.78125,20.6875 0,57.85714 18.625,-11.42857 0,-35.70982 17.15625,-9.90625 17.1875,9.90625 0,18.03125 18.59375,0 0,-28.75 z"
         id="path2989-1-5-2-1-7"
         inkscape:connector-curvature="0"
         sodipodi:nodetypes="ccccccccccc"
         transform="translate(347.4375,332.11025)" />
      <path
         style="fill:#ffffff;fill-rule:evenodd;stroke:#ffffff;stroke-width:1;stroke-linecap:butt;stroke-linejoin:miter;stroke-opacity:1;display:inline"
         d="m 432.875,411.8915 35.78125,20.6875 0,57.85714 -18.625,-11.42857 0,-35.70982 -17.15625,-9.90625 -17.1875,9.90625 0,18.03125 -18.59375,0 0,-28.75 z"
         id="path2989-1-5-2-1-7-7"
         inkscape:connector-curvature="0"
         sodipodi:nodetypes="ccccccccccc" />
    </g>
  </g>
</svg>
